<svg width="375" height="271" viewBox="0 0 375 271" fill="none" xmlns="http://www.w3.org/2000/svg">
<path d="M46.5475 52.8328L222.563 80.7173C271.656 88.4947 307.176 134.866 301.899 184.291L294.694 251.776L29.7875 209.809L46.5475 52.8328Z" fill="#D9D9D9"/>
<path d="M46.5475 52.8328L222.563 80.7173C271.656 88.4947 307.176 134.866 301.899 184.291L294.694 251.776L29.7875 209.809L46.5475 52.8328Z" fill="#3C39C8"/>
<path d="M84.8956 21.8704L260.911 49.7549C310.004 57.5323 345.524 103.904 340.248 153.329L333.042 220.813L68.1356 178.847L84.8956 21.8704Z" fill="#FFC063"/>
<path d="M135.361 -9.67026L311.376 18.2143C360.469 25.9917 395.989 72.3632 390.712 121.788L383.507 189.273L118.601 147.306L135.361 -9.67026Z" fill="#D9D9D9"/>
<path d="M135.361 -9.67026L311.376 18.2143C360.469 25.9917 395.989 72.3632 390.712 121.788L383.507 189.273L118.601 147.306L135.361 -9.67026Z" fill="#3C39C8"/>
<path d="M185.826 -52.7758L361.841 -24.8912C410.934 -17.1138 446.454 29.2577 441.177 78.6824L433.972 146.167L169.066 104.2L185.826 -52.7758Z" fill="#FFC063"/>
</svg>
