<svg width="375" height="246" viewBox="0 0 375 246" fill="none" xmlns="http://www.w3.org/2000/svg">
<path d="M176.477 18.5244C192.182 13.005 208.644 21.3742 213.248 37.2176L313.627 382.677C327.438 430.207 300.441 482.161 253.328 498.719L68.0996 563.819L-65.6212 103.612L176.477 18.5244Z" fill="#D9D9D9"/>
<path d="M176.477 18.5244C192.182 13.005 208.644 21.3742 213.248 37.2176L313.627 382.677C327.438 430.207 300.441 482.161 253.328 498.719L68.0996 563.819L-65.6212 103.612L176.477 18.5244Z" fill="#3C39C8"/>
<path d="M256.641 56.3283C272.345 50.8089 288.808 59.1781 293.412 75.0215L410.462 477.855C415.065 493.698 406.066 511.016 390.362 516.535L176.699 591.629C160.994 597.148 144.532 588.779 139.928 572.936L14.5426 141.416L256.641 56.3283Z" fill="#FFC063"/>
<path d="M347.022 113.239C362.726 107.719 379.189 116.088 383.793 131.932L484.172 477.391C497.982 524.921 470.985 576.875 423.872 593.433L238.644 658.533L104.923 198.326L347.022 113.239Z" fill="#D9D9D9"/>
<path d="M347.022 113.239C362.726 107.719 379.189 116.088 383.793 131.932L484.172 477.391C497.982 524.921 470.985 576.875 423.872 593.433L238.644 658.533L104.923 198.326L347.022 113.239Z" fill="#3C39C8"/>
<path d="M456.389 161.151C472.093 155.632 488.556 164.001 493.16 179.844L622.172 623.846C635.983 671.376 608.986 723.33 561.873 739.888L376.645 804.988L214.291 246.239L456.389 161.151Z" fill="#FFC063"/>
</svg>
