<svg width="280" height="66" viewBox="0 0 280 66" fill="none" xmlns="http://www.w3.org/2000/svg">
<path d="M0.20599 65.0137H10.7828V21.0982H0.20599V65.0137Z" fill="#1C1D20"/>
<path d="M18.9856 65.0137H29.1913V38.6644H29.315L46.5101 65.0137H56.7776V21.0982H46.5719V48.1279L46.4482 48.1897L28.9439 21.0982H18.9856V65.0137Z" fill="#1C1D20"/>
<path d="M73.6175 65.0137H84.1325V30.3143H95.6371V21.0982H62.1748V30.3143H73.6175V65.0137Z" fill="#1C1D20"/>
<path d="M100.953 65.0137H130.889V55.7976H111.035V47.6331H125.694V38.7263H111.035V30.3143H129.59V21.0982H100.953V65.0137Z" fill="#1C1D20"/>
<path d="M137.134 65.0137H147.216V50.8494H150.989L160.02 65.0137H172.143L161.69 49.4268C167.133 47.2001 169.978 42.623 169.978 36.2521C169.978 27.469 165.153 21.0982 154.267 21.0982H137.134V65.0137ZM147.216 41.8189V30.1906H152.597C157.236 30.1906 159.277 32.6647 159.277 36.0047C159.277 39.654 156.865 41.8189 152.412 41.8189H147.216Z" fill="#1C1D20"/>
<path d="M177.55 65.0137H188.126V21.0982H177.55V65.0137Z" fill="#1C1D20"/>
<path d="M217.421 65.5704C225.214 65.5704 231.338 61.8592 235.111 57.2202L227.565 50.7257C225.029 53.7565 221.503 55.6739 217.421 55.6739C210.246 55.6739 205.607 50.169 205.607 43.1178C205.607 35.0769 210.988 30.3761 217.359 30.3761C221.627 30.3761 225.153 32.6647 227.503 35.4481L235.049 28.9535C230.224 23.0775 223.544 20.4797 217.359 20.4797C202.885 20.4797 194.721 30.5617 194.721 43.1178C194.721 57.7151 204.803 65.5704 217.421 65.5704Z" fill="#1C1D20"/>
<path d="M236.896 65.0137H247.721L250.318 57.0965H265.658L268.256 65.0137H279.018L262.936 21.0982H253.04L236.896 65.0137ZM253.102 48.4371L257.926 33.5925H258.05L262.936 48.4371H253.102Z" fill="#1C1D20"/>
<path d="M0 0H57V8H0V0Z" fill="#D9D9D9"/>
<path d="M0 0H57V8H0V0Z" fill="#F9AD3D"/>
</svg>
