<svg width="375" height="148" viewBox="0 0 375 148" fill="none" xmlns="http://www.w3.org/2000/svg">
<path d="M555.121 -124.192L278.605 -84.4399C225.392 -76.7899 187.093 -29.4563 193.062 21.2824L205.844 129.916L578.711 76.3125L555.121 -124.192Z" fill="#D9D9D9"/>
<path d="M555.121 -124.192L278.605 -84.4399C225.392 -76.7899 187.093 -29.4563 193.062 21.2824L205.844 129.916L578.711 76.3125L555.121 -124.192Z" fill="#3C39C8"/>
<path d="M501.144 -163.74L224.629 -123.988C171.415 -116.338 133.116 -69.0044 139.086 -18.2656L151.867 90.3684L524.734 36.7645L501.144 -163.74Z" fill="#FFC063"/>
<path d="M430.112 -204.027L153.597 -164.275C100.383 -156.625 62.0843 -109.291 68.054 -58.5523L80.8353 50.0817L453.703 -3.52222L430.112 -204.027Z" fill="#D9D9D9"/>
<path d="M430.112 -204.027L153.597 -164.275C100.383 -156.625 62.0843 -109.291 68.054 -58.5523L80.8353 50.0817L453.703 -3.52222L430.112 -204.027Z" fill="#3C39C8"/>
</svg>
